<svg width="20" height="20" viewBox="0 0 20 20" fill="none" xmlns="http://www.w3.org/2000/svg">
<path fill-rule="evenodd" clip-rule="evenodd" d="M18 0H6C4.9 0 4 0.9 4 2V14C4 15.1 4.9 16 6 16H18C19.1 16 20 15.1 20 14V2C20 0.9 19.1 0 18 0ZM9.5 7.5C9.5 8.33 8.83 9 8 9H7V11H5.5V5H8C8.83 5 9.5 5.67 9.5 6.5V7.5ZM13 11C13.83 11 14.5 10.33 14.5 9.5V6.5C14.5 5.67 13.83 5 13 5H10.5V11H13ZM18.5 6.5H17V7.5H18.5V9H17V11H15.5V5H18.5V6.5ZM8 7.5H7V6.5H8V7.5ZM2 4H0V18C0 19.1 0.9 20 2 20H16V18H2V4ZM13 9.5H12V6.5H13V9.5Z" fill="black" fill-opacity="0.54"/>
</svg>
