<svg viewBox="0 0 94 95" version="1.1" xmlns="http://www.w3.org/2000/svg" xmlns:xlink="http://www.w3.org/1999/xlink">
    <g id="Page-1" stroke="none" stroke-width="1" fill="none" fill-rule="evenodd">
        <g id="kafo_logo_pun_taust">
            <g id="Group">
                <polygon id="Fill-1" fill="#D82333" points="0.125 94.375 93.875 94.375 93.875 0.625 0.125 0.625"></polygon>
                <polygon id="Fill-2" fill="#FFFFFE" points="41.7104 45.6074 29.6784 30.6704 20.7384 37.9314 20.7384 45.6074 18.1814 45.6074 18.1814 18.6404 20.7384 18.6404 20.7384 35.0254 40.9074 18.6404 44.4614 18.6404 31.7044 29.0294 45.1104 45.6074"></polygon>
                <path d="M63.1191,21.0488 L55.5571,36.4818 L70.8361,36.4818 L63.1191,21.0488 Z M75.3811,45.6078 L71.9041,38.6188 L54.5251,38.6188 L51.0881,45.6078 L48.3741,45.6078 L61.6681,18.6408 L64.5721,18.6408 L78.1681,45.6078 L75.3811,45.6078 Z" id="Fill-3" fill="#FFFFFE"></path>
                <polygon id="Fill-4" fill="#FFFFFE" points="20.8149 52.7046 20.8149 62.2946 40.6789 62.2946 40.6789 64.6236 20.8149 64.6236 20.8149 77.4566 18.1809 77.4566 18.1809 50.4896 43.0099 50.4896 43.0099 52.7046"></polygon>
                <path d="M75.6094,60.8418 C75.2654,59.3518 74.1194,55.7998 70.2984,53.7378 C69.0024,53.0498 66.0974,51.8288 62.1644,51.9808 C61.0564,52.0188 57.4254,52.2858 54.4844,54.4628 C52.9224,55.6108 49.8264,58.6628 49.8264,64.0508 C49.8264,64.7768 49.9024,66.6848 50.7034,68.6738 C53.4164,75.5088 61.0564,75.8928 62.9664,75.8928 C64.3024,75.8928 68.1604,75.7778 71.4844,73.2958 C75.6854,70.1208 75.9144,65.4268 75.9144,63.7458 C75.9144,63.1338 75.9534,62.2168 75.6094,60.8418 Z M75.7614,72.6468 C71.4084,77.8788 64.9144,78.1858 62.8144,78.1858 C60.6344,78.1858 52.6134,77.8028 48.7554,70.8888 C47.1144,67.9458 47.0004,65.1958 47.0004,63.9368 C47.0004,62.9438 47.0764,60.8048 48.1074,58.3968 C50.6274,52.3628 56.7794,49.6138 63.0044,49.6508 C65.2184,49.6508 72.6304,49.9928 76.6794,56.4138 C78.6254,59.5038 78.8574,62.5628 78.8574,63.8958 C78.8574,65.4268 78.5484,69.2828 75.7614,72.6468 Z" id="Fill-5" fill="#FFFFFE"></path>
                <path d="M6.665,88.039 L87.245,88.039 L87.245,7.456 L6.665,7.456 L6.665,88.039 Z M4.435,90.266 L89.475,90.266 L89.475,5.229 L4.435,5.229 L4.435,90.266 Z" id="Fill-7" fill="#FFFFFE"></path>
            </g>
        </g>
    </g>
</svg>
