<svg xmlns="http://www.w3.org/2000/svg" viewBox="0 0 32 32"><defs><style>.cls-1{fill:#e2051b;fill-rule:evenodd}</style></defs><g id="Layer_2" data-name="Layer 2"><g id="Layer_1-2" data-name="Layer 1"><path class="cls-1" d="M13.74 15L9.27 9.46l-3.32 2.69V15H5V5h.95v6.08L13.44 5h1.32l-4.74 3.85L15 15h-1.26zM27 15l-1.28-2.59h-6.45L18 15h-1l4.91-10H23l5 10zm-4.56-9.11l-2.79 5.73h5.64zM5.96 17.82v3.56h7.19v.86H5.96V27H5V17h9v.82H5.96zM26.83 25.86A6.25 6.25 0 0 1 22 28c-.82 0-3.85-.15-5.3-2.81a5.72 5.72 0 0 1-.24-4.82A5.76 5.76 0 0 1 22 17a6 6 0 0 1 5.15 2.61 5.63 5.63 0 0 1 .85 2.88 5.47 5.47 0 0 1-1.17 3.37m0-4.55a4.13 4.13 0 0 0-2-2.73 6 6 0 0 0-3.07-.68 5.31 5.31 0 0 0-2.89 1 4.57 4.57 0 0 0-1.76 3.7 5.06 5.06 0 0 0 .33 1.78c1 2.64 3.9 2.79 4.62 2.79a5.36 5.36 0 0 0 3.21-1 4.55 4.55 0 0 0 1.67-3.69 4.06 4.06 0 0 0-.11-1.12"/><path class="cls-1" d="M0 32h32V0H0zm.84-.84h30.32V.84H.84z"/></g></g></svg>