<svg width="180" height="79" viewBox="0 0 180 79" fill="none" xmlns="http://www.w3.org/2000/svg">
<path d="M166.762 45.8761C162.906 46.9101 167.653 38.1772 167.653 38.1772L174.181 24.5613L160.24 25.3016C143.034 25.4502 136.658 34.7725 136.658 34.7725C129.978 42.7673 125.677 43.5048 125.677 43.5048C121.674 44.0977 124.346 40.2515 124.346 40.2515L131.906 26.632C133.242 24.4127 131.461 24.8572 131.461 24.8572L123.749 26.3361C121.826 26.632 123.01 25.5981 123.01 25.5981L130.722 15.9764C132.65 13.4605 129.386 14.791 129.386 14.791L115.146 18.9366L111.589 25.0057C108.026 29.4444 112.48 27.966 112.48 27.966C94.8933 47.4335 94.5827 42.1404 94.5827 42.1404C91.0666 40.865 101.937 24.9057 101.937 24.9057L89.4903 26.9285C82.7745 41.2889 74.9571 39.3626 74.9571 39.3626C69.0208 38.6217 78.3677 25.3016 78.3677 25.3016L67.3858 26.7806C60.3537 33.8041 46.4769 40.548 46.4769 40.548L55.8824 24.5887L42.1755 27.5215L34.909 38.3252C31.346 43.6568 29.1192 46.6136 29.1192 46.6136C27.7889 47.651 22.005 52.6826 22.005 52.6826C15.9222 57.7172 0.644796 76.8093 0.644796 76.8093C-2.47279 80.9549 6.72761 77.4022 6.72761 77.4022L17.7036 74.442C21.8526 73.4045 24.8237 70.2957 24.8237 70.2957L40.9859 50.1668C44.1035 49.2773 61.3089 39.2146 61.3089 39.2146C56.5622 53.5715 66.7998 52.6826 66.7998 52.6826C74.2129 52.6826 82.9621 47.3545 82.9621 47.3545C83.8528 54.164 89.4903 52.5341 89.4903 52.5341C100.466 52.0932 117.818 28.9999 117.818 28.9999L119.893 28.7069L114.109 38.1772C105.061 53.423 115.146 52.8306 115.146 52.8306C123.456 52.6827 134.133 45.2831 134.133 45.2831C134.725 53.7195 141.552 52.6826 141.552 52.6826C148.226 52.6826 156.085 46.9101 156.085 46.9101C156.53 52.3862 162.015 52.5341 162.015 52.5341C167.799 52.5341 171.362 44.6907 171.362 44.6907L170.471 44.2457C168.543 45.7247 166.762 45.8761 166.762 45.8761ZM157.122 35.2169C155.048 39.2146 149.557 41.8784 149.557 41.8784C139.624 43.8013 146.293 35.8093 146.293 35.8093C148.965 33.1456 152.674 31.8151 152.674 31.8151C161.124 29.4444 157.122 35.2169 157.122 35.2169Z" fill="#FF0000"/>
<path d="M54.1889 2.65692L64.573 0.582047C64.573 0.582047 67.0929 -0.303352 65.3114 2.65692C65.3114 2.65692 61.4555 11.9787 54.1889 13.1641C54.1889 13.1641 47.2153 15.0875 48.9968 9.9079C48.9968 9.9079 51.3702 3.69085 54.1889 2.65692Z" fill="#FF0000"/>
<path d="M173.384 48.7779C173.384 50.5972 174.867 52.0756 176.695 52.0756C178.518 52.0756 180 50.5972 180 48.7779C180 46.958 178.518 45.4761 176.695 45.4761C174.867 45.4761 173.384 46.958 173.384 48.7779ZM174.023 48.7779C174.023 47.3059 175.224 46.1135 176.695 46.1135C178.16 46.1135 179.362 47.3059 179.362 48.7779C179.362 50.2422 178.16 51.4381 176.695 51.4381C175.224 51.4381 174.023 50.2422 174.023 48.7779Z" fill="#FF0000"/>
<path d="M175.265 46.8789H176.859C177.117 46.8789 177.334 46.9198 177.504 47.0029C177.826 47.1649 177.99 47.4643 177.99 47.8988C177.99 48.1263 177.943 48.3123 177.861 48.4573C177.773 48.6017 177.65 48.7158 177.492 48.8053C177.627 48.8637 177.732 48.9462 177.803 49.0427C177.873 49.1392 177.908 49.3012 177.92 49.5216L177.937 50.0357C177.943 50.1801 177.955 50.2871 177.973 50.3597C178.002 50.4801 178.055 50.5591 178.125 50.5936V50.6766H177.533C177.521 50.6421 177.504 50.6006 177.498 50.5491C177.486 50.4971 177.486 50.3971 177.48 50.2491L177.445 49.6117C177.439 49.3631 177.351 49.1947 177.199 49.1117C177.111 49.0637 176.976 49.0427 176.789 49.0427H175.74V50.6766H175.265V46.8789ZM176.8 48.6158C177.017 48.6158 177.187 48.5672 177.31 48.4707C177.439 48.3742 177.498 48.2017 177.498 47.9538C177.498 47.6818 177.416 47.4988 177.234 47.4023C177.146 47.3508 177.017 47.3269 176.859 47.3269H175.74V48.6158H176.8Z" fill="#FF0000"/>
</svg>
