<svg width="16" height="16" viewBox="0 0 16 16" fill="none" xmlns="http://www.w3.org/2000/svg">
<path opacity="0.24" fill-rule="evenodd" clip-rule="evenodd" d="M8 16C12.4183 16 16 12.4183 16 8C16 3.58172 12.4183 0 8 0C3.58172 0 0 3.58172 0 8C0 12.4183 3.58172 16 8 16Z" fill="#535352"/>
<path fill-rule="evenodd" clip-rule="evenodd" d="M9.91218 4.9569C10.0958 4.83303 10.2249 4.63679 10.267 4.42021C10.3094 4.20198 10.2633 3.97168 10.1394 3.78804C10.0155 3.6044 9.81928 3.47532 9.60105 3.4329C9.38447 3.3908 9.15417 3.43697 8.97053 3.56083C8.78523 3.68438 8.65615 3.88062 8.61373 4.09885C8.57163 4.31543 8.6178 4.54573 8.74332 4.72969C8.86719 4.91333 9.06145 5.04375 9.27969 5.08616C9.49792 5.12858 9.72854 5.08076 9.91218 4.9569Z" fill="white"/>
<path fill-rule="evenodd" clip-rule="evenodd" d="M6.73481 12.5337C6.60519 12.5085 6.48538 12.4399 6.39692 12.3354C6.25547 12.168 6.21861 11.9358 6.30131 11.7327L7.9194 7.75639L7.42177 7.92182C7.11253 8.02454 6.77891 7.85726 6.67646 7.54841C6.57368 7.23951 6.7408 6.90585 7.0497 6.80307L8.76183 6.23375C8.9803 6.16109 9.22096 6.22228 9.37807 6.39025C9.53538 6.55808 9.58057 6.80227 9.49386 7.01532L7.81712 11.1354L8.56779 10.9683C8.88583 10.898 9.20054 11.0982 9.27125 11.4158C9.34194 11.7336 9.1416 12.0484 8.8238 12.1193L6.97528 12.5305C6.89479 12.5483 6.81301 12.5489 6.73481 12.5337Z" fill="white"/>
</svg>
