<svg xmlns="http://www.w3.org/2000/svg" viewBox="0 0 721 1107">
<path fill-rule="evenodd" d="M1174.86-23.153H1440V1107h-154.496l42.61 105.467-2.78 1.124-43.066-106.59H719V-23.153h106.657l-24.772-61.314 2.78-1.124 25.228 62.437h342.73l73.71-182.438 2.782 1.123-73.255 181.314zm-174.602 424.145L828.893-23.153h-3.236l172.984 428.15 1.618-4.005zm1.618 4.005l-1.618 4.004 282.01 698h3.236l-283.628-702.003zm172.984-428.15h-3.236l-171.366 424.145 1.618 4.005 172.984-428.15zM1000.258 409l-1.617-4.003-277.755 687.47 2.78 1.124L1000.26 409z" transform="translate(-719)" opacity=".96"/>
</svg>
