<svg xmlns="http://www.w3.org/2000/svg" viewBox="0 0 483 823">
<path fill-rule="evenodd" d="M395.756 823H285V0h116.01l-34.125-84.467 2.78-1.124L404.248 0H728.27l83.064-205.59 2.78 1.123L731.505 0H768v823h-31.24l157.355 389.467-2.78 1.124L733.524 823H398.992l-109.326 270.59-2.78-1.123L395.755 823zm170.502-422.008L404.248 0h-3.237l163.63 404.997 1.618-4.005zm1.618 4.005L566.258 409l167.267 414h3.236L567.877 404.997zM395.756 823h3.236l167.266-414-1.617-4.003L395.757 823zM731.506 0h-3.236L566.258 400.992l1.618 4.005L731.506 0z" transform="translate(-285)" opacity=".96"/>
</svg>
